<svg id="Layer_1" data-name="Layer 1" xmlns="http://www.w3.org/2000/svg" xmlns:xlink="http://www.w3.org/1999/xlink" viewBox="0 0 1061.73 247.16"><defs><style>.cls-1{fill:none;}.cls-2{fill:#0f4eed;}.cls-3{fill:#794e9b;}.cls-4{fill:#ff1d25;}.cls-5{fill:#00a99d;}.cls-6{fill:#fbb03b;}.cls-7{fill:#fff;}.cls-8{clip-path:url(#clip-path);}.cls-9{clip-path:url(#clip-path-2);}.cls-10{clip-path:url(#clip-path-3);}</style><clipPath id="clip-path"><path class="cls-1" d="M737.19,174.86l-6.86,23.69H675.42L729,43.57h55.35l53.58,155H780.36l-6.86-23.69Zm18.15-71.29-8.85,31.88H764Z"/></clipPath><clipPath id="clip-path-2"><path class="cls-1" d="M65.43,90.07c0-29.89,23.47-49.38,58.23-49.38,35.42,0,55.13,23.25,59.33,36.53L143.58,99.81c-3.32-6.87-10-14.17-17-14.17-2.88,0-4.65,1.77-4.65,4,0,14.61,60.66,18.16,60.66,61.77,0,30.56-23.47,50-60.44,50s-55.57-24.36-61.33-40.29l40.07-21.7c5.76,9.74,13.73,16.38,20.59,16.38,2.88,0,4.43-1.55,4.43-3.76C125.87,137.89,65.43,135.89,65.43,90.07Z"/></clipPath><clipPath id="clip-path-3"><path class="cls-1" d="M346.4,119.84c0-44.72,32.77-80.15,85.68-80.15s85.68,35.43,85.68,80.15c0,45.39-32.76,80.59-85.68,80.59S346.4,165.23,346.4,119.84Zm58.67,0c0,20.15,9.52,34.32,27,34.32,17.27,0,27-14.17,27-34.32,0-19.48-9.74-33.88-27-33.88C414.59,86,405.07,100.36,405.07,119.84Z"/></clipPath></defs><title>4Artboard 17</title><path class="cls-2" d="M65.43,90.07c0-29.89,23.47-49.38,58.23-49.38,35.42,0,55.13,23.25,59.33,36.53L143.58,99.81c-3.32-6.87-10-14.17-17-14.17-2.88,0-4.65,1.77-4.65,4,0,14.61,60.66,18.16,60.66,61.77,0,30.56-23.47,50-60.44,50s-55.57-24.36-61.33-40.29l40.07-21.7c5.76,9.74,13.73,16.38,20.59,16.38,2.88,0,4.43-1.55,4.43-3.76C125.87,137.89,65.43,135.89,65.43,90.07Z"/><path class="cls-3" d="M192.74,43.57H249v55.8h32.76V43.57H338v155H281.74V143H249v55.57H192.74Z"/><path class="cls-4" d="M346.4,120.84c0-44.72,32.77-80.15,85.68-80.15s85.68,35.43,85.68,80.15c0,45.39-32.76,80.59-85.68,80.59S346.4,166.23,346.4,120.84Zm58.67,0c0,20.15,9.52,34.32,27,34.32,17.27,0,27-14.17,27-34.32,0-19.48-9.74-33.88-27-33.88C414.59,87,405.07,101.36,405.07,120.84Z"/><path class="cls-5" d="M526.19,43.57h56.23V99.81L609,43.57h61.33L632,117.52l39.85,81H609.43l-27-63.76v63.76H526.19Z"/><path class="cls-6" d="M737.19,174.86l-6.86,23.69H675.42L729,43.57h55.35l53.58,155H780.36l-6.86-23.69Zm18.15-71.29-8.85,31.88H764Z"/><path d="M845.68,43.57h56.9l33.65,72.84V43.57h55.58v155h-56.9l-33.66-72.84v72.84H845.68Z"/><path class="cls-7" d="M553.83,182.56c16.6,0,16.62-25.79,0-25.79s-16.62,25.79,0,25.79Z"/><path class="cls-7" d="M552.87,136.82c16.59,0,16.62-25.79,0-25.79s-16.63,25.79,0,25.79Z"/><path class="cls-7" d="M552.87,91.22c16.59,0,16.62-25.79,0-25.79s-16.63,25.79,0,25.79Z"/><path class="cls-7" d="M753.09,138.86a87.49,87.49,0,0,0-6.34,14,2.1,2.1,0,0,0,.54,2,22.91,22.91,0,0,1,4.77,9.07,2.12,2.12,0,0,0,3.83.5c1.88-3.44,6-8.32,6-12.41s-3.14-11.52-4.85-14.94c-1.39-2.8-5.56,2.53-4.32,4.93,1.5,2.92,4.52,6.88,4.45,10.13s-3.3,7.34-4.86,10.18l3.83.5A27.64,27.64,0,0,0,750.25,152l.54,2a82.91,82.91,0,0,1,5.91-13c1.33-2.35-2.29-4.46-3.61-2.11Z"/><path class="cls-7" d="M292.85,60.83c-.23,3.89-1.09,10.62.67,14.28,1.15,2.37,3,2.09,5.44,2,5.93-.13,11.86-.38,17.79-.57,3.17-.1,7.51.91,9.14-2.41,1.82-3.68,2.34-8.68,2.88-12.71.32-2.43.7-4.69-1.81-5.84-1.5-.68-3.85-.41-5.43-.49-2.94-.15-5.89-.25-8.83-.31-6.22-.11-12.44,0-18.65.34a1.52,1.52,0,0,0-1.45,1.9l.85,3.65c.43,1.88,3.32,1.09,2.89-.79l-.85-3.66-1.44,1.9c6.86-.35,13.74-.47,20.61-.29,2.93.07,7.55-.59,10.1,1,2.18,1.35.93,3.27.5,5.5a34.22,34.22,0,0,1-1.15,5.22c-1.68,4.51-5.25,3.92-9.33,4l-9.89.32c-1.72.06-4.23.48-5.93.19-2.31-.38-2.45-.16-3-3-.62-3.29-.32-7-.12-10.29.11-1.93-2.89-1.92-3,0Z"/><path class="cls-7" d="M292.85,97.37c-.23,3.88-1.09,10.62.67,14.27,1.15,2.38,3,2.1,5.44,2,5.93-.13,11.86-.38,17.79-.57,3.17-.11,7.51.9,9.14-2.41,1.82-3.69,2.34-8.68,2.88-12.72.32-2.42.7-4.68-1.81-5.83-1.5-.68-3.85-.41-5.43-.49-2.94-.16-5.89-.26-8.83-.31-6.22-.11-12.44,0-18.65.34a1.52,1.52,0,0,0-1.45,1.9l.85,3.65c.43,1.88,3.32,1.08,2.89-.8l-.85-3.65-1.44,1.9c6.86-.35,13.74-.47,20.61-.3,2.93.08,7.55-.58,10.1,1,2.18,1.36.93,3.28.5,5.51a34.09,34.09,0,0,1-1.15,5.21c-1.68,4.52-5.25,3.93-9.33,4.06l-9.89.32c-1.72.06-4.23.48-5.93.19-2.31-.39-2.45-.16-3-3-.62-3.29-.32-7-.12-10.29.11-1.93-2.89-1.92-3,0Z"/><path class="cls-7" d="M292.85,133.91c-.23,3.88-1.09,10.62.67,14.27,1.15,2.37,3,2.09,5.44,2,5.93-.13,11.86-.38,17.79-.58,3.17-.1,7.51.91,9.14-2.4,1.82-3.69,2.34-8.68,2.88-12.72.32-2.42.7-4.68-1.81-5.83-1.5-.68-3.85-.41-5.43-.49-2.94-.16-5.89-.26-8.83-.31-6.22-.11-12.44,0-18.65.34a1.52,1.52,0,0,0-1.45,1.9l.85,3.65c.43,1.88,3.32,1.08,2.89-.8l-.85-3.65-1.44,1.9c6.86-.35,13.74-.48,20.61-.3,2.93.07,7.55-.58,10.1,1,2.18,1.35.93,3.28.5,5.51a34.09,34.09,0,0,1-1.15,5.21c-1.68,4.51-5.25,3.93-9.33,4.06l-9.89.32c-1.72.05-4.23.48-5.93.19-2.31-.39-2.45-.16-3-3-.62-3.29-.32-7-.12-10.29.11-1.93-2.89-1.93-3,0Z"/><path class="cls-7" d="M292.85,172.59c-.23,3.89-1.09,10.62.67,14.28,1.15,2.37,3,2.09,5.44,2,5.93-.13,11.86-.39,17.79-.58,3.17-.1,7.51.91,9.14-2.4,1.82-3.69,2.34-8.69,2.88-12.72.32-2.43.7-4.69-1.81-5.83-1.5-.69-3.85-.41-5.43-.5-2.94-.15-5.89-.25-8.83-.31-6.22-.11-12.44,0-18.65.34a1.52,1.52,0,0,0-1.45,1.9l.85,3.65c.43,1.88,3.32,1.09,2.89-.79l-.85-3.66-1.44,1.9c6.86-.35,13.74-.47,20.61-.29,2.93.07,7.55-.59,10.1,1,2.18,1.35.93,3.27.5,5.5a34.22,34.22,0,0,1-1.15,5.22c-1.68,4.51-5.25,3.92-9.33,4l-9.89.32c-1.72.06-4.23.48-5.93.2-2.31-.39-2.45-.17-3-3-.62-3.29-.32-7-.12-10.29.11-1.93-2.89-1.92-3,0Z"/><g class="cls-8"><path class="cls-7" d="M701,147.06a654.05,654.05,0,0,0,1,71.67c.29,4.12,6.74,4.15,6.45,0a651.57,651.57,0,0,1-1-71.67c.17-4.15-6.28-4.14-6.45,0Z"/><path class="cls-7" d="M719.33,147.94v74.73c0,4.15,6.45,4.16,6.45,0V147.94c0-4.15-6.45-4.15-6.45,0Z"/><path class="cls-7" d="M787,147.81a376.75,376.75,0,0,0,1.09,56.11c.39,4.09,6.84,4.13,6.45,0a376.75,376.75,0,0,1-1.09-56.11c.22-4.15-6.22-4.13-6.45,0Z"/><path class="cls-7" d="M804.44,148.83v64.35c0,4.15,6.45,4.16,6.45,0V148.83c0-4.15-6.45-4.15-6.45,0Z"/></g><g class="cls-9"><path class="cls-7" d="M62,145.49c14.49,3.41,21.6,17.47,32.5,26.25,9.13,7.35,21.06,11.58,32.84,10.45,19.9-1.9,36.4-22.39,29.14-42.39C146.85,113.22,106,120.63,97.72,92c-6.27-21.58,17.08-32.8,35-28.49C149,67.37,170.06,82.07,175.91,98.1c1.41,3.86,7.65,2.19,6.22-1.72-8.25-22.59-40.29-44-64.61-40-24.63,4-35.24,30.08-19.4,49.77,9,11.17,22.26,14.93,34.81,20.52,7.91,3.52,15.92,8.38,18.15,17.41,2.12,8.6-1.38,18.23-7.61,24.34-14.55,14.27-37.26,6.37-49.77-6.14-9.21-9.2-16.61-19.84-29.95-23-4-1-5.76,5.26-1.72,6.22Z"/></g><g class="cls-10"><path class="cls-7" d="M438.84,120.77c3.53-11.72,5.45-30.92-11.24-33.1C414,85.89,399,103.07,395.27,114.88c-12.19,38.25,27.05,70.41,63.11,62,4-.94,2.33-7.16-1.71-6.21-23.3,5.44-53.74-9.6-56.32-35.11-1.41-13.93,2.1-23,11.47-33.1,1.87-2,3.66-4.45,6-6,4.27-2.81,12.28-1.55,15.78,2.16,4.31,4.57.54,15.43-1,20.42-1.2,4,5,5.69,6.21,1.72Z"/><path class="cls-7" d="M421.92,123.68c-3.52,11.72-5.44,30.92,11.25,33.1,13.65,1.79,28.56-15.4,32.32-27.2,12.2-38.26-27-70.42-63.1-62-4,.94-2.33,7.16,1.71,6.22,23.3-5.45,53.74,9.59,56.32,35.1,1.4,13.94-2.1,23-11.47,33.1-1.87,2-3.66,4.45-6,6-4.27,2.8-12.28,1.54-15.79-2.17-4.3-4.56-.53-15.42,1-20.42,1.2-4-5-5.69-6.22-1.72Z"/></g></svg>